<svg xmlns="http://www.w3.org/2000/svg" viewBox="0 0 135.882 175.986"><g transform="translate(-527.638273,464.990396) scale(0.1,-0.1)"><path fill="#134D37" d="M5852 4595 c-257 -172 -475 -493 -547 -802 -40 -171 -38 -368 5 -539 23 -93 116 -287 160 -334 33 -35 46 -36 126 0 l42 18 3 84 c6 130 37 167 232 271 38 21 75 37 83 37 22 0 199 -94 244 -130 53 -42 80 -101 80 -178 0 -76 23 -106 94 -124 48 -13 48 -12 73 17 64 79 134 226 170 357 24 86 24 329 0 448 -37 186 -113 367 -219 522 -109 160 -375 408 -438 408 -14 0 -62 -25 -108 -55z m243 -247 c180 -183 292 -373 353 -598 45 -168 34 -431 -22 -538 l-13 -24 -21 34 c-33 54 -120 130 -195 172 -38 21 -71 44 -73 51 -3 7 12 36 33 64 54 70 76 138 76 226 -1 178 -130 298 -305 282 -232 -21 -324 -299 -168 -505 22 -29 40 -58 40 -65 0 -6 -26 -25 -57 -42 -92 -48 -167 -108 -202 -164 -19 -29 -37 -49 -42 -44 -4 4 -16 35 -27 68 -122 365 50 854 401 1147 85 70 90 69 222 -64z m-59 -522 c31 -31 34 -39 34 -93 0 -48 -5 -67 -29 -104 -15 -24 -40 -55 -55 -68 l-26 -25 -36 35 c-74 72 -97 141 -70 212 19 50 56 76 110 77 30 0 45 -7 72 -34z"/></g></svg>